<svg id="Capa_1" enable-background="new 0 0 512 512" height="512" viewBox="0 0 512 512" width="512" xmlns="http://www.w3.org/2000/svg"><g><path d="m398.004 183.167h-30l15 30v100.667c0 8.284 6.716 15 15 15s15-6.716 15-15v-115.667c0-8.285-6.716-15-15-15z" fill="#02e885"/><path d="m368.004 183.167c-8.284 0-15 6.716-15 15s6.716 15 15 15h15v-15c0-8.285-6.716-15-15-15z" fill="#05ff77"/><path d="m82.503 235.667c0-12.41-10.1-22.5-22.5-22.5-12.41 0-22.5 10.09-22.5 22.5v40.667c0 12.41 10.09 22.5 22.5 22.5 12.4 0 22.5-10.09 22.5-22.5 0 36.754 0 52.5-22.5 52.5-28.95 0-52.5-23.55-52.5-52.5v-40.667c0-28.95 23.55-52.5 52.5-52.5 22.5 0 22.5 15 22.5 52.5z" fill="#05ff77"/><path d="m112.503 235.667v40.667c0 28.95-23.55 52.5-52.5 52.5 12.4 0 22.5-23.55 22.5-52.5v-40.667c0-28.95-10.1-52.5-22.5-52.5 28.95 0 52.5 23.55 52.5 52.5z" fill="#02e885"/><path d="m180.003 183.167h-30l15 30v100.667c0 8.284 6.716 15 15 15s15-6.716 15-15v-115.667c0-8.285-6.715-15-15-15z" fill="#02e885"/><path d="m150.003 183.167c-8.284 0-15 6.716-15 15s6.716 15 15 15h15v-15c0-8.285-6.715-15-15-15z" fill="#05ff77"/><path d="m300.503 235.667c0-12.41-10.1-22.5-22.5-22.5-12.41 0-22.5 10.09-22.5 22.5v40.667c0 12.41 10.09 22.5 22.5 22.5 12.4 0 22.5-10.09 22.5-22.5 0 36.754 0 52.5-22.5 52.5-28.95 0-52.5-23.55-52.5-52.5v-40.667c0-28.95 23.55-52.5 52.5-52.5 22.5 0 22.5 15 22.5 52.5z" fill="#05ff77"/><path d="m330.503 235.667v40.667c0 28.95-23.55 52.5-52.5 52.5 12.4 0 22.5-23.55 22.5-52.5v-40.667c0-28.95-10.1-52.5-22.5-52.5 28.95 0 52.5 23.55 52.5 52.5z" fill="#02e885"/><path d="m489.497 183.167h-30l15 30v100.667c0 8.284 6.716 15 15 15s15-6.716 15-15v-115.667c0-8.285-6.716-15-15-15z" fill="#02e885"/><path d="m459.497 183.167c-8.284 0-15 6.716-15 15s6.716 15 15 15h15v-15c0-8.285-6.716-15-15-15z" fill="#05ff77"/><path d="m173 60c0-12.41-10.1-22.5-22.5-22.5-12.41 0-22.5 10.09-22.5 22.5v40.667c0 12.41 10.09 22.5 22.5 22.5 12.4 0 22.5-10.09 22.5-22.5 0 36.754 0 52.5-22.5 52.5-28.95 0-52.5-23.55-52.5-52.5v-40.667c0-28.95 23.55-52.5 52.5-52.5 22.5 0 22.5 15 22.5 52.5z" fill="#05ff77"/><path d="m203 60v40.667c0 28.95-23.55 52.5-52.5 52.5 12.4 0 22.5-23.55 22.5-52.5v-40.667c0-28.95-10.1-52.5-22.5-52.5 28.95 0 52.5 23.55 52.5 52.5z" fill="#02e885"/><path d="m489.5 7.5h-30l15 30v100.667c0 8.284 6.716 15 15 15s15-6.716 15-15v-115.667c0-8.284-6.716-15-15-15z" fill="#02e885"/><path d="m459.5 7.5c-8.284 0-15 6.716-15 15s6.716 15 15 15h15v-15c0-8.284-6.716-15-15-15z" fill="#05ff77"/><path d="m271 7.5h-30l15 30v100.667c0 8.284 6.716 15 15 15s15-6.716 15-15v-115.667c0-8.284-6.716-15-15-15z" fill="#02e885"/><path d="m241 7.5c-8.284 0-15 6.716-15 15s6.716 15 15 15h15v-15c0-8.284-6.716-15-15-15z" fill="#05ff77"/><path d="m52.5 7.5h-30l15 30v100.667c0 8.284 6.716 15 15 15s15-6.716 15-15v-115.667c0-8.284-6.716-15-15-15z" fill="#02e885"/><path d="m22.5 7.5c-8.284 0-15 6.716-15 15s6.716 15 15 15h15v-15c0-8.284-6.716-15-15-15z" fill="#05ff77"/><path d="m391.5 60c0-12.41-10.1-22.5-22.5-22.5-12.41 0-22.5 10.09-22.5 22.5v40.667c0 12.41 10.09 22.5 22.5 22.5 12.4 0 22.5-10.09 22.5-22.5 0 36.754 0 52.5-22.5 52.5-28.95 0-52.5-23.55-52.5-52.5v-40.667c0-28.95 23.55-52.5 52.5-52.5 22.5 0 22.5 15 22.5 52.5z" fill="#05ff77"/><path d="m421.5 60v40.667c0 28.95-23.55 52.5-52.5 52.5 12.4 0 22.5-23.55 22.5-52.5v-40.667c0-28.95-10.1-52.5-22.5-52.5 28.95 0 52.5 23.55 52.5 52.5z" fill="#02e885"/><path d="m173 411.333c0-12.41-10.1-22.5-22.5-22.5-12.41 0-22.5 10.09-22.5 22.5v40.667c0 12.41 10.09 22.5 22.5 22.5 12.4 0 22.5-10.09 22.5-22.5 0 36.754 0 52.5-22.5 52.5-28.95 0-52.5-23.55-52.5-52.5v-40.667c0-28.95 23.55-52.5 52.5-52.5 22.5 0 22.5 15 22.5 52.5z" fill="#05ff77"/><path d="m203 411.333v40.667c0 28.95-23.55 52.5-52.5 52.5 12.4 0 22.5-23.55 22.5-52.5v-40.667c0-28.95-10.1-52.5-22.5-52.5 28.95 0 52.5 23.55 52.5 52.5z" fill="#02e885"/><path d="m489.5 358.833h-30l15 30v100.667c0 8.284 6.716 15 15 15s15-6.716 15-15v-115.667c0-8.284-6.716-15-15-15z" fill="#02e885"/><path d="m459.5 358.833c-8.284 0-15 6.716-15 15s6.716 15 15 15h15v-15c0-8.284-6.716-15-15-15z" fill="#05ff77"/><path d="m271 358.833h-30l15 30v100.667c0 8.284 6.716 15 15 15s15-6.716 15-15v-115.667c0-8.284-6.716-15-15-15z" fill="#02e885"/><path d="m241 358.833c-8.284 0-15 6.716-15 15s6.716 15 15 15h15v-15c0-8.284-6.716-15-15-15z" fill="#05ff77"/><path d="m52.5 358.833h-30l15 30v100.667c0 8.284 6.716 15 15 15s15-6.716 15-15v-115.667c0-8.284-6.716-15-15-15z" fill="#02e885"/><path d="m22.5 358.833c-8.284 0-15 6.716-15 15s6.716 15 15 15h15v-15c0-8.284-6.716-15-15-15z" fill="#05ff77"/><path d="m391.5 411.333c0-12.41-10.1-22.5-22.5-22.5-12.41 0-22.5 10.09-22.5 22.5v40.667c0 12.41 10.09 22.5 22.5 22.5 12.4 0 22.5-10.09 22.5-22.5 0 36.754 0 52.5-22.5 52.5-28.95 0-52.5-23.55-52.5-52.5v-40.667c0-28.95 23.55-52.5 52.5-52.5 22.5 0 22.5 15 22.5 52.5z" fill="#05ff77"/><path d="m421.5 411.333v40.667c0 28.95-23.55 52.5-52.5 52.5 12.4 0 22.5-23.55 22.5-52.5v-40.667c0-28.95-10.1-52.5-22.5-52.5 28.95 0 52.5 23.55 52.5 52.5z" fill="#02e885"/><path d="m195.003 248.5c4.143 0 7.5-3.358 7.5-7.5v-42.833c0-12.407-10.094-22.5-22.5-22.5h-30c-12.406 0-22.5 10.093-22.5 22.5s10.094 22.5 22.5 22.5h7.5v93.167c0 12.407 10.094 22.5 22.5 22.5s22.5-10.093 22.5-22.5v-42.834c0-4.142-3.357-7.5-7.5-7.5s-7.5 3.358-7.5 7.5v42.833c0 4.136-3.364 7.5-7.5 7.5s-7.5-3.364-7.5-7.5v-100.666c0-4.142-3.357-7.5-7.5-7.5h-15c-4.136 0-7.5-3.364-7.5-7.5s3.364-7.5 7.5-7.5h30c4.136 0 7.5 3.364 7.5 7.5v42.833c0 4.142 3.357 7.5 7.5 7.5z"/><path d="m.003 235.667v40.667c0 33.084 26.916 60 60 60s60-26.916 60-60v-40.667c0-33.084-26.916-60-60-60s-60 26.916-60 60zm105 0v40.667c0 24.813-20.187 45-45 45s-45-20.187-45-45v-40.667c0-24.813 20.187-45 45-45s45 20.187 45 45z"/><path d="m30.003 235.667v40.666c0 16.542 13.458 30 30 30s30-13.458 30-30v-40.666c0-16.542-13.458-30-30-30s-30 13.458-30 30zm45 0v40.666c0 8.271-6.729 15-15 15s-15-6.729-15-15v-40.666c0-8.271 6.729-15 15-15s15 6.729 15 15z"/><path d="m398.004 336.333c12.406 0 22.5-10.093 22.5-22.5v-115.666c0-12.407-10.094-22.5-22.5-22.5h-30c-12.406 0-22.5 10.093-22.5 22.5s10.094 22.5 22.5 22.5h7.5v93.167c0 12.406 10.094 22.499 22.5 22.499zm-30-130.666c-4.136 0-7.5-3.364-7.5-7.5s3.364-7.5 7.5-7.5h30c4.136 0 7.5 3.364 7.5 7.5v115.667c0 4.136-3.364 7.5-7.5 7.5s-7.5-3.364-7.5-7.5v-100.667c0-4.142-3.357-7.5-7.5-7.5z"/><path d="m278.003 336.333c33.084 0 60-26.916 60-60v-40.667c0-33.084-26.916-60-60-60s-60 26.916-60 60v40.667c0 33.084 26.916 60 60 60zm-45-100.666c0-24.813 20.187-45 45-45s45 20.187 45 45v40.667c0 24.813-20.187 45-45 45s-45-20.187-45-45z"/><path d="m278.003 306.333c16.542 0 30-13.458 30-30v-40.666c0-16.542-13.458-30-30-30s-30 13.458-30 30v40.666c0 16.542 13.458 30 30 30zm-15-70.666c0-8.271 6.729-15 15-15s15 6.729 15 15v40.666c0 8.271-6.729 15-15 15s-15-6.729-15-15z"/><path d="m489.497 336.333c12.406 0 22.5-10.093 22.5-22.5v-115.666c0-12.407-10.094-22.5-22.5-22.5h-30c-12.406 0-22.5 10.093-22.5 22.5s10.094 22.5 22.5 22.5h7.5v93.167c0 12.406 10.094 22.499 22.5 22.499zm-30-130.666c-4.136 0-7.5-3.364-7.5-7.5s3.364-7.5 7.5-7.5h30c4.136 0 7.5 3.364 7.5 7.5v115.667c0 4.136-3.364 7.5-7.5 7.5s-7.5-3.364-7.5-7.5v-100.667c0-4.142-3.357-7.5-7.5-7.5z"/><path d="m241 45h7.5v93.167c0 12.407 10.094 22.5 22.5 22.5s22.5-10.093 22.5-22.5v-115.667c0-12.407-10.094-22.5-22.5-22.5h-30c-12.406 0-22.5 10.093-22.5 22.5s10.094 22.5 22.5 22.5zm0-30h30c4.136 0 7.5 3.364 7.5 7.5v115.667c0 4.136-3.364 7.5-7.5 7.5s-7.5-3.364-7.5-7.5v-100.667c0-4.142-3.357-7.5-7.5-7.5h-15c-4.136 0-7.5-3.364-7.5-7.5s3.364-7.5 7.5-7.5z"/><path d="m150.5 0c-33.084 0-60 26.916-60 60v40.667c0 33.084 26.916 60 60 60s60-26.916 60-60v-40.667c0-33.084-26.916-60-60-60zm45 100.667c0 24.813-20.187 45-45 45s-45-20.187-45-45v-40.667c0-24.813 20.187-45 45-45s45 20.187 45 45z"/><path d="m150.5 30c-16.542 0-30 13.458-30 30v40.667c0 16.542 13.458 30 30 30s30-13.458 30-30v-40.667c0-16.542-13.458-30-30-30zm15 70.667c0 8.271-6.729 15-15 15s-15-6.729-15-15v-40.667c0-8.271 6.729-15 15-15s15 6.729 15 15z"/><path d="m489.5 0h-30c-12.406 0-22.5 10.093-22.5 22.5s10.094 22.5 22.5 22.5h7.5v93.167c0 12.407 10.094 22.5 22.5 22.5s22.5-10.093 22.5-22.5v-115.667c0-12.407-10.094-22.5-22.5-22.5zm7.5 138.167c0 4.136-3.364 7.5-7.5 7.5s-7.5-3.364-7.5-7.5v-100.667c0-4.142-3.357-7.5-7.5-7.5h-15c-4.136 0-7.5-3.364-7.5-7.5s3.364-7.5 7.5-7.5h30c4.136 0 7.5 3.364 7.5 7.5z"/><path d="m22.5 45h7.5v93.167c0 12.407 10.094 22.5 22.5 22.5s22.5-10.093 22.5-22.5v-115.667c0-12.407-10.094-22.5-22.5-22.5h-30c-12.406 0-22.5 10.093-22.5 22.5s10.094 22.5 22.5 22.5zm0-30h30c4.136 0 7.5 3.364 7.5 7.5v115.667c0 4.136-3.364 7.5-7.5 7.5s-7.5-3.364-7.5-7.5v-100.667c0-4.142-3.357-7.5-7.5-7.5h-15c-4.136 0-7.5-3.364-7.5-7.5s3.364-7.5 7.5-7.5z"/><path d="m369 0c-33.084 0-60 26.916-60 60v40.667c0 33.084 26.916 60 60 60s60-26.916 60-60v-40.667c0-33.084-26.916-60-60-60zm45 100.667c0 24.813-20.187 45-45 45s-45-20.187-45-45v-40.667c0-24.813 20.187-45 45-45s45 20.187 45 45z"/><path d="m369 30c-16.542 0-30 13.458-30 30v40.667c0 16.542 13.458 30 30 30s30-13.458 30-30v-40.667c0-16.542-13.458-30-30-30zm15 70.667c0 8.271-6.729 15-15 15s-15-6.729-15-15v-40.667c0-8.271 6.729-15 15-15s15 6.729 15 15z"/><path d="m271 351.333h-30c-12.406 0-22.5 10.093-22.5 22.5s10.094 22.5 22.5 22.5h7.5v93.167c0 12.407 10.094 22.5 22.5 22.5s22.5-10.093 22.5-22.5v-115.667c0-12.406-10.094-22.5-22.5-22.5zm7.5 138.167c0 4.136-3.364 7.5-7.5 7.5s-7.5-3.364-7.5-7.5v-100.667c0-4.142-3.357-7.5-7.5-7.5h-15c-4.136 0-7.5-3.364-7.5-7.5s3.364-7.5 7.5-7.5h30c4.136 0 7.5 3.364 7.5 7.5z"/><path d="m150.5 351.333c-33.084 0-60 26.916-60 60v40.667c0 33.084 26.916 60 60 60s60-26.916 60-60v-40.667c0-33.083-26.916-60-60-60zm45 100.667c0 24.813-20.187 45-45 45s-45-20.187-45-45v-40.667c0-24.813 20.187-45 45-45s45 20.187 45 45z"/><path d="m150.5 381.333c-16.542 0-30 13.458-30 30v40.667c0 16.542 13.458 30 30 30s30-13.458 30-30v-40.666c0-16.542-13.458-30.001-30-30.001zm15 70.667c0 8.271-6.729 15-15 15s-15-6.729-15-15v-40.666c0-8.271 6.729-15 15-15s15 6.729 15 15z"/><path d="m489.5 351.333h-30c-12.406 0-22.5 10.093-22.5 22.5s10.094 22.5 22.5 22.5h7.5v93.167c0 12.407 10.094 22.5 22.5 22.5s22.5-10.093 22.5-22.5v-115.667c0-12.406-10.094-22.5-22.5-22.5zm7.5 138.167c0 4.136-3.364 7.5-7.5 7.5s-7.5-3.364-7.5-7.5v-100.667c0-4.142-3.357-7.5-7.5-7.5h-15c-4.136 0-7.5-3.364-7.5-7.5s3.364-7.5 7.5-7.5h30c4.136 0 7.5 3.364 7.5 7.5z"/><path d="m52.5 351.333h-30c-12.406 0-22.5 10.093-22.5 22.5s10.094 22.5 22.5 22.5h7.5v93.167c0 12.407 10.094 22.5 22.5 22.5s22.5-10.093 22.5-22.5v-115.667c0-12.406-10.094-22.5-22.5-22.5zm7.5 138.167c0 4.136-3.364 7.5-7.5 7.5s-7.5-3.364-7.5-7.5v-100.667c0-4.142-3.357-7.5-7.5-7.5h-15c-4.136 0-7.5-3.364-7.5-7.5s3.364-7.5 7.5-7.5h30c4.136 0 7.5 3.364 7.5 7.5z"/><path d="m369 351.333c-33.084 0-60 26.916-60 60v40.667c0 33.084 26.916 60 60 60s60-26.916 60-60v-40.667c0-33.083-26.916-60-60-60zm45 100.667c0 24.813-20.187 45-45 45s-45-20.187-45-45v-40.667c0-24.813 20.187-45 45-45s45 20.187 45 45z"/><path d="m369 381.333c-16.542 0-30 13.458-30 30v40.667c0 16.542 13.458 30 30 30s30-13.458 30-30v-40.667c0-16.541-13.458-30-30-30zm15 70.667c0 8.271-6.729 15-15 15s-15-6.729-15-15v-40.667c0-8.271 6.729-15 15-15s15 6.729 15 15z"/></g></svg>