<svg width="256" height="256" viewBox="0 0 256 256" fill="none" xmlns="http://www.w3.org/2000/svg">
<path d="M98 173C98 181.285 104.715 188 113 188H128V235.845C119.93 247.985 106.135 256 90.5 256C65.685 256 45.5 235.815 45.5 211C45.5 207.565 45.905 204.05 46.675 200.65C28.4 194.795 15.5 177.79 15.5 158C15.5 146.74 19.64 136.19 27.085 128H68V113C68 104.715 74.715 98 83 98C91.285 98 98 104.715 98 113V128H128V158H113C104.715 158 98 164.715 98 173Z" fill="#00D1B2"/>
<path d="M209.325 200.65C210.095 204.05 210.5 207.565 210.5 211C210.5 235.815 190.315 256 165.5 256C149.865 256 136.07 247.985 128 235.845V188H113C104.715 188 98 181.285 98 173C98 164.715 104.715 158 113 158H128V128H158V143C158 151.285 164.715 158 173 158C181.285 158 188 151.285 188 143V128H228.915C236.36 136.19 240.5 146.74 240.5 158C240.5 177.79 227.6 194.795 209.325 200.65Z" fill="#F14668"/>
<path d="M240.5 98C240.5 109.26 236.36 119.81 228.915 128H188V143C188 151.285 181.285 158 173 158C164.715 158 158 151.285 158 143V128H128V98H143C151.285 98 158 91.285 158 83C158 74.715 151.285 68 143 68H128V20.155C136.07 8.015 149.865 0 165.5 0C190.315 0 210.5 20.185 210.5 45C210.5 48.435 210.095 51.95 209.325 55.35C227.6 61.205 240.5 78.21 240.5 98Z" fill="#209CEE"/>
<path d="M158 83C158 91.285 151.285 98 143 98H128V128H98V113C98 104.715 91.285 98 83 98C74.715 98 68 104.715 68 113V128H27.085C19.64 119.81 15.5 109.26 15.5 98C15.5 78.21 28.4 61.205 46.675 55.35C45.905 51.95 45.5 48.435 45.5 45C45.5 20.185 65.685 0 90.5 0C106.135 0 119.93 8.015 128 20.155V68H143C151.285 68 158 74.715 158 83Z" fill="#FFDD57"/>
</svg>
