<svg width="141" height="126" viewBox="0 0 141 126" fill="none" xmlns="http://www.w3.org/2000/svg">
<path d="M140.13 81.1786C140.13 89.2816 133.562 95.8491 125.459 95.8491H110.789V125.19H81.4479V110.52C81.4479 102.417 74.8804 95.8491 66.7774 95.8491C58.6744 95.8491 52.107 102.417 52.107 110.52V125.19H12.0908C4.80931 117.18 0.760254 106.862 0.760254 95.8491C0.760254 76.4939 13.3769 59.8624 31.2504 54.136C30.4973 50.8107 30.1012 47.3729 30.1012 44.0134C30.1012 19.7435 49.8428 0.00192261 74.1127 0.00192261C89.4042 0.00192261 102.896 7.84085 110.789 19.7142V66.5081H125.459C133.562 66.5081 140.13 73.0756 140.13 81.1786Z" fill="#FFDD57"/>
</svg>
