<svg width="111" height="155" viewBox="0 0 111 155" fill="none" xmlns="http://www.w3.org/2000/svg">
<path d="M110.992 95.8491C110.992 106.862 106.943 117.18 99.6618 125.19H59.6456V139.861C59.6456 147.964 53.0781 154.531 44.9751 154.531C36.8721 154.531 30.3046 147.964 30.3046 139.861V125.19H0.963623V95.8491H15.6341C23.7371 95.8491 30.3046 89.2816 30.3046 81.1786C30.3046 73.0756 23.7371 66.5081 15.6341 66.5081H0.963623V19.7142C8.85635 7.84085 22.3483 0.00192261 37.6399 0.00192261C61.9097 0.00192261 81.6513 19.7435 81.6513 44.0134C81.6513 47.3729 81.2552 50.8107 80.5021 54.136C98.3757 59.8624 110.992 76.4938 110.992 95.8491Z" fill="#209CEE"/>
</svg>
