<svg width="140" height="126" viewBox="0 0 140 126" fill="none" xmlns="http://www.w3.org/2000/svg">
<path d="M109.261 71.0541C110.014 74.3794 110.41 77.8172 110.41 81.1767C110.41 105.447 90.6682 125.188 66.3983 125.188C51.1068 125.188 37.6148 117.349 29.7221 105.476V58.682H15.0516C6.94859 58.682 0.381104 52.1145 0.381104 44.0115C0.381104 35.9085 6.94859 29.341 15.0516 29.341H29.7221V0H59.0631V14.6705C59.0631 22.7735 65.6305 29.341 73.7335 29.341C81.8365 29.341 88.404 22.7735 88.404 14.6705V0H128.42C135.702 8.01009 139.751 18.3283 139.751 29.341C139.751 48.6963 127.134 65.3277 109.261 71.0541Z" fill="#F14668"/>
</svg>
