<svg width="111" height="155" viewBox="0 0 111 155" fill="none" xmlns="http://www.w3.org/2000/svg">
<path d="M81.1185 73.3525C81.1185 81.4555 87.686 88.0229 95.789 88.0229H110.459V134.817C102.567 146.69 89.0748 154.529 73.7832 154.529C49.5133 154.529 29.7718 134.788 29.7718 110.518C29.7718 107.158 30.1679 103.72 30.9209 100.395C13.0474 94.6687 0.430786 78.0372 0.430786 58.682C0.430786 47.6693 4.47984 37.3511 11.7613 29.341H51.7775V14.6705C51.7775 6.56749 58.345 0 66.448 0C74.551 0 81.1185 6.56749 81.1185 14.6705V29.341H110.459V58.682H95.789C87.686 58.682 81.1185 65.2495 81.1185 73.3525Z" fill="#00D1B2"/>
</svg>
