<svg width="143" height="256" viewBox="0 0 143 256" fill="none" xmlns="http://www.w3.org/2000/svg">
<path d="M83 173C83 181.285 89.715 188 98 188H113V235.845C104.93 247.985 91.135 256 75.5 256C50.685 256 30.5 235.815 30.5 211C30.5 207.565 30.905 204.05 31.675 200.65C13.4 194.795 0.5 177.79 0.5 158C0.5 146.74 4.64 136.19 12.085 128H53V113C53 104.715 59.715 98 68 98C76.285 98 83 104.715 83 113V128H113V158H98C89.715 158 83 164.715 83 173Z" fill="#00D1B2"/>
<path d="M143 83C143 91.285 136.285 98 128 98H113V128H83V113C83 104.715 76.285 98 68 98C59.715 98 53 104.715 53 113V128H12.085C4.64 119.81 0.5 109.26 0.5 98C0.5 78.21 13.4 61.205 31.675 55.35C30.905 51.95 30.5 48.435 30.5 45C30.5 20.185 50.685 0 75.5 0C91.135 0 104.93 8.015 113 20.155V68H128C136.285 68 143 74.715 143 83Z" fill="#FFDD57"/>
</svg>
