<svg width="143" height="256" viewBox="0 0 143 256" fill="none" xmlns="http://www.w3.org/2000/svg">
<path d="M111.325 200.65C112.095 204.05 112.5 207.565 112.5 211C112.5 235.815 92.315 256 67.5 256C51.865 256 38.07 247.985 30 235.845V188H15C6.715 188 0 181.285 0 173C0 164.715 6.715 158 15 158H30V128H60V143C60 151.285 66.715 158 75 158C83.285 158 90 151.285 90 143V128H130.915C138.36 136.19 142.5 146.74 142.5 158C142.5 177.79 129.6 194.795 111.325 200.65Z" fill="#F14668"/>
<path d="M142.5 98C142.5 109.26 138.36 119.81 130.915 128H90V143C90 151.285 83.285 158 75 158C66.715 158 60 151.285 60 143V128H30V98H45C53.285 98 60 91.285 60 83C60 74.715 53.285 68 45 68H30V20.155C38.07 8.015 51.865 0 67.5 0C92.315 0 112.5 20.185 112.5 45C112.5 48.435 112.095 51.95 111.325 55.35C129.6 61.205 142.5 78.21 142.5 98Z" fill="#209CEE"/>
</svg>
